# xmcd
#
# Track frame offsets: 
#        150
#        20798
#        44120
#        60867
#        79117
#        93951
#        115510
#        128190
#        154015
#        171846
#
# Disc length: 2648 seconds
#
# Revision: 1
# Processed by: cddbd v1.5.2PL0 Copyright (c) Steve Scherf et al.
# Submitted via: ExactAudioCopy v0.95b4
#
DISCID=780a560a
DTITLE=Jagjit Singh - Tere Khusboo Mein Basey Khat ...
DYEAR=2001
DGENRE=Ghazal
TTITLE0=Tere Khushboo Mein Basey Khat
TTITLE1=Kabhi Yun Bhi To Ho
TTITLE2=Bat Niklegi To Phir Door Talak Jayegi
TTITLE3=Ek Chameli Ke Mandwe Tale
TTITLE4=Koi Yeh Kaise Bataye
TTITLE5=Mere Dil Ne Kaha
TTITLE6=Raat Bhar Deeda-e-Namnaar (Feat. Asha Bhosle)
TTITLE7=Mujhko Yaqeen Hai
TTITLE8=Main Bhool Jaoon
TTITLE9=Woh Kagaz Ki Kashti (Part I and II)
EXTD=
EXTT0=
EXTT1=
EXTT2=
EXTT3=
EXTT4=
EXTT5=
EXTT6=
EXTT7=
EXTT8=
EXTT9=
PLAYORDER=
